<?xml version="1.0" standalone="no"?>
<!DOCTYPE svg PUBLIC "-//W3C//DTD SVG 1.0//EN" "http://www.w3.org/TR/2001/REC-SVG-20010904/DTD/svg10.dtd">
<svg xmlns="http://www.w3.org/2000/svg" xmlns:xlink="http://www.w3.org/1999/xlink" id="body_1" width="82" height="82">

<g transform="matrix(0.17988846 0 0 0.17988846 -0 2.74488E-06)">
	<g>
		<g>
            <path d="M454.968 160.667C 454.793 160.41 454.594 160.169 454.373 159.94801C 393.884 99.46 313.461 66.147 227.919 66.147C 142.382 66.147 61.966003 99.453 1.480011 159.935C 0.540011 160.868 1.0967255E-05 162.145 1.0967255E-05 163.487C 1.0967255E-05 164.813 0.526011 166.085 1.465011 167.023L1.465011 167.023L34.57801 200.137C 35.51601 201.075 36.78701 201.601 38.11301 201.601C 39.43901 201.601 40.71101 201.074 41.64801 200.137C 91.48401 150.29799 157.63602 122.85199 227.919 122.85199C 298.201 122.85199 364.35303 150.299 414.19 200.13599C 415.128 201.07399 416.39902 201.59999 417.724 201.59999C 419.05 201.59999 420.323 201.073 421.259 200.13599L421.259 200.13599L454.372 167.02199C 455.31 166.08398 455.837 164.81299 455.837 163.486C 455.839 162.481 455.534 161.499 454.968 160.667z" stroke="none" fill="#9CC602" fill-rule="nonzero" />
            <path d="M227.919 153.719C 165.863 153.719 107.45801 177.95 63.461014 221.948C 61.509014 223.901 61.509014 227.067 63.462013 229.019L63.462013 229.019L96.472015 262.02798C 97.41002 262.96597 98.681015 263.49298 100.00702 263.49298C 101.333015 263.49298 102.60502 262.96597 103.54202 262.02798C 136.81903 228.75098 180.99002 210.42299 227.91902 210.42299C 274.85004 210.42299 319.02103 228.75099 352.295 262.02798C 353.233 262.96597 354.505 263.49298 355.83102 263.49298C 357.15704 263.49298 358.42902 262.96597 359.36603 262.02798L359.36603 262.02798L392.377 229.01898C 393.315 228.08098 393.842 226.80998 393.842 225.48299C 393.842 224.15599 393.31702 222.88498 392.377 221.94699C 348.38 177.951 289.975 153.719 227.919 153.719z" stroke="none" fill="#9CC602" fill-rule="nonzero" />
            <path d="M227.919 241.292C 189.218 241.292 152.793 256.402 125.355 283.841C 124.416 284.779 123.89001 286.05002 123.89001 287.378C 123.89001 288.70398 124.41501 289.97598 125.355 290.913L125.355 290.913L158.365 323.923C 159.30301 324.861 160.574 325.388 161.90001 325.388C 163.22601 325.388 164.49802 324.861 165.43501 323.923C 182.154 307.204 204.34401 297.997 227.919 297.997C 251.494 297.997 273.686 307.206 290.404 323.923C 291.34198 324.861 292.613 325.388 293.938 325.388C 295.26297 325.388 296.53598 324.861 297.473 323.923L297.473 323.923L330.483 290.913C 332.435 288.96 332.435 285.794 330.483 283.843C 303.046 256.402 266.621 241.292 227.919 241.292z" stroke="none" fill="#9CC602" fill-rule="nonzero" />
            <path d="M227.919 334.083C 214.39801 334.083 201.69 339.34702 192.13501 348.905C 190.18301 350.858 190.18301 354.023 192.13602 355.975L192.13602 355.975L224.38402 388.225C 225.32202 389.163 226.59302 389.69 227.91902 389.69C 229.24503 389.69 230.51802 389.163 231.45403 388.225L231.45403 388.225L263.70203 355.975C 265.65402 354.022 265.65402 350.857 263.70203 348.904C 254.146 339.347 241.438 334.083 227.919 334.083z" stroke="none" fill="#9CC602" fill-rule="nonzero" />
		</g>
	</g>
	<g>
	</g>
	<g>
	</g>
	<g>
	</g>
	<g>
	</g>
	<g>
	</g>
	<g>
	</g>
	<g>
	</g>
	<g>
	</g>
	<g>
	</g>
	<g>
	</g>
	<g>
	</g>
	<g>
	</g>
	<g>
	</g>
	<g>
	</g>
	<g>
	</g>
</g>
</svg>